<?xml version="1.0" encoding="utf-8"?>
<!-- Generator: Adobe Illustrator 23.1.1, SVG Export Plug-In . SVG Version: 6.00 Build 0)  -->
<svg version="1.1" id="Capa_1" xmlns="http://www.w3.org/2000/svg" xmlns:xlink="http://www.w3.org/1999/xlink" x="0px" y="0px"
	 viewBox="0 0 472.03 75.23" style="enable-background:new 0 0 472.03 75.23;" xml:space="preserve">
<style type="text/css">
	.st0{fill-rule:evenodd;clip-rule:evenodd;fill:#5E5FA6;}
	.st1{fill-rule:evenodd;clip-rule:evenodd;fill:#FFFFFF;}
</style>
<g>
	<path class="st0" d="M275.49,57.14l9.02-42.56c0.16-0.71,0.27-1.35,0.35-1.97c0.08-0.6,0.06-1.1-0.02-1.51
		c-0.09-0.42-0.3-0.74-0.63-0.97c-0.31-0.22-0.79-0.35-1.4-0.35c-0.52,0-0.97,0.13-1.34,0.38c-0.38,0.24-0.69,0.55-0.97,0.91
		c-0.27,0.38-0.5,0.75-0.66,1.16c-0.17,0.39-0.3,0.72-0.39,1.01l-4.56,21.55l-4.75,22.34h-9.02l11.74-55.37h9.02l-0.24,1.21
		l-0.77,2.28l-0.05,0.13c0.2-0.46,0.49-0.93,0.85-1.41c0.35-0.5,0.8-0.94,1.34-1.37c0.53-0.41,1.18-0.75,1.93-1.01
		c0.75-0.27,1.65-0.39,2.69-0.39c1.87,0,3.33,0.55,4.39,1.63c1.04,1.08,1.7,2.56,1.98,4.45c0.88-1.93,1.97-3.44,3.22-4.5
		c1.26-1.05,2.8-1.59,4.65-1.59c1.52,0,2.77,0.36,3.73,1.1c0.94,0.74,1.67,1.7,2.14,2.88c0.47,1.18,0.72,2.52,0.75,4.01
		c0.03,1.49-0.09,2.99-0.41,4.5l-9.26,43.45h-9.02l8.88-41.86c0.09-0.49,0.22-1.05,0.38-1.68c0.16-0.63,0.22-1.23,0.22-1.79
		c0-0.57-0.11-1.05-0.36-1.43c-0.25-0.39-0.71-0.58-1.38-0.58c-1.13,0-2,0.38-2.58,1.13c-0.58,0.75-1.04,1.92-1.38,3.47l-4.32,20.41
		l-4.75,22.34H275.49L275.49,57.14z M317.96,57.14h8.74l11.74-55.37h-9.02l-0.22,1.35l-0.33,2.74l-0.09,0.17
		c-0.09-0.68-0.25-1.3-0.49-1.89c-0.22-0.58-0.53-1.08-0.94-1.51c-0.39-0.44-0.88-0.79-1.46-1.04c-0.58-0.27-1.26-0.39-2.03-0.39
		c-1.73,0-3.24,0.41-4.54,1.23c-1.3,0.8-2.42,1.82-3.33,3.05c-0.93,1.23-1.68,2.58-2.26,4.02c-0.58,1.46-1.01,2.85-1.29,4.17
		l-6.73,31.57c-0.27,1.32-0.38,2.7-0.31,4.17c0.06,1.45,0.35,2.8,0.88,4.02c0.52,1.23,1.31,2.25,2.36,3.05
		c1.07,0.82,2.47,1.23,4.23,1.23c1.37,0,2.53-0.41,3.47-1.23c0.93-0.8,1.76-1.9,2.45-3.29L317.96,57.14L317.96,57.14z M316.63,49.12
		c-0.68,0-1.16-0.14-1.48-0.41c-0.31-0.28-0.5-0.63-0.58-1.04c-0.06-0.41-0.08-0.85-0.02-1.29c0.06-0.44,0.13-0.83,0.19-1.18
		l6.71-31.5c0.06-0.33,0.16-0.72,0.28-1.16c0.13-0.46,0.31-0.88,0.58-1.29c0.25-0.42,0.6-0.77,1.01-1.04
		c0.41-0.28,0.96-0.42,1.63-0.42c0.64,0,1.12,0.16,1.43,0.47c0.3,0.3,0.5,0.68,0.6,1.12c0.09,0.46,0.11,0.91,0.05,1.38
		c-0.06,0.49-0.13,0.88-0.19,1.23l-6.59,30.95c-0.06,0.33-0.16,0.74-0.3,1.21c-0.14,0.49-0.35,0.94-0.61,1.38
		c-0.28,0.44-0.64,0.82-1.08,1.13C317.8,48.96,317.27,49.12,316.63,49.12L316.63,49.12z M345.97,57.14l9.12-42.84
		c0.09-0.49,0.17-0.99,0.25-1.51c0.08-0.53,0.08-1.01,0.02-1.46c-0.06-0.44-0.24-0.8-0.55-1.1c-0.3-0.28-0.79-0.44-1.43-0.44
		s-1.18,0.16-1.64,0.47c-0.44,0.3-0.8,0.68-1.1,1.1c-0.3,0.42-0.5,0.86-0.64,1.3c-0.14,0.46-0.24,0.8-0.3,1.04l-9.21,43.44h-9.02
		l11.74-55.37h9.02l-0.31,1.57l-0.79,2.36v0.08c0.83-1.59,1.81-2.75,2.94-3.49c1.15-0.74,2.36-1.12,3.65-1.12
		c1.65,0,3,0.31,4.02,0.94c1.04,0.63,1.79,1.51,2.31,2.61c0.5,1.1,0.75,2.41,0.77,3.9c0.02,1.48-0.16,3.1-0.52,4.86L355,57.14
		H345.97L345.97,57.14z M374.13,57.14h8.74l11.74-55.37h-9.02l-0.22,1.35l-0.33,2.74l-0.09,0.17c-0.09-0.68-0.25-1.3-0.49-1.89
		c-0.22-0.58-0.53-1.08-0.94-1.51c-0.39-0.44-0.88-0.79-1.46-1.04c-0.58-0.27-1.26-0.39-2.03-0.39c-1.73,0-3.24,0.41-4.54,1.23
		c-1.3,0.8-2.42,1.82-3.33,3.05c-0.93,1.23-1.68,2.58-2.26,4.02c-0.58,1.46-1.01,2.85-1.29,4.17l-6.73,31.57
		c-0.27,1.32-0.38,2.7-0.31,4.17c0.06,1.45,0.35,2.8,0.88,4.02c0.52,1.23,1.31,2.25,2.36,3.05c1.07,0.82,2.47,1.23,4.23,1.23
		c1.37,0,2.53-0.41,3.47-1.23c0.93-0.8,1.76-1.9,2.45-3.29L374.13,57.14L374.13,57.14z M372.79,49.12c-0.68,0-1.16-0.14-1.48-0.41
		c-0.31-0.28-0.5-0.63-0.58-1.04c-0.06-0.41-0.08-0.85-0.02-1.29c0.06-0.44,0.13-0.83,0.19-1.18l6.71-31.5
		c0.06-0.33,0.16-0.72,0.28-1.16c0.13-0.46,0.31-0.88,0.58-1.29c0.25-0.42,0.6-0.77,1.01-1.04c0.41-0.28,0.96-0.42,1.63-0.42
		c0.64,0,1.12,0.16,1.43,0.47c0.3,0.3,0.5,0.68,0.6,1.12c0.09,0.46,0.11,0.91,0.05,1.38c-0.06,0.49-0.13,0.88-0.19,1.23l-6.59,30.95
		c-0.06,0.33-0.16,0.74-0.3,1.21c-0.14,0.49-0.35,0.94-0.61,1.38c-0.28,0.44-0.64,0.82-1.08,1.13
		C373.97,48.96,373.43,49.12,372.79,49.12L372.79,49.12z M422.57,1.77L409.64,62.8c-0.3,1.41-0.79,2.85-1.45,4.32
		c-0.66,1.48-1.54,2.81-2.66,4.01c-1.1,1.19-2.44,2.19-3.99,2.96c-1.57,0.75-3.41,1.15-5.53,1.15c-2.09,0-3.84-0.17-5.22-0.5
		c-1.4-0.35-2.59-0.77-3.58-1.29l2.12-7.61c0.77,0.25,1.73,0.44,2.86,0.58c1.13,0.14,2.28,0.2,3.46,0.2c1.46,0,2.63-0.42,3.44-1.29
		c0.83-0.86,1.43-2.12,1.81-3.77l1.37-6.45l0.42-1.43c-0.68,1.26-1.46,2.25-2.37,2.97c-0.91,0.72-2,1.08-3.3,1.08
		c-1.74,0-3.16-0.41-4.23-1.23c-1.07-0.82-1.87-1.84-2.39-3.07c-0.53-1.23-0.82-2.56-0.88-4.02c-0.06-1.46,0.05-2.85,0.31-4.17
		l6.73-31.6c0.28-1.32,0.71-2.7,1.29-4.17c0.58-1.46,1.35-2.81,2.28-4.04c0.94-1.23,2.06-2.23,3.36-3.03
		c1.3-0.8,2.81-1.21,4.54-1.21c1.46,0,2.59,0.44,3.36,1.32c0.75,0.88,1.27,1.96,1.51,3.25L413,5.54l0.19-1.93l0.41-1.84H422.57
		L422.57,1.77z M400.76,49.12c0.64,0,1.18-0.16,1.63-0.46c0.44-0.31,0.8-0.69,1.08-1.13c0.27-0.44,0.47-0.9,0.61-1.38
		c0.14-0.47,0.24-0.88,0.3-1.21l3.36-15.8l3.41-15.89c0.03-0.36,0.05-0.75,0.05-1.15c0-0.41-0.08-0.77-0.2-1.12
		c-0.14-0.33-0.36-0.61-0.64-0.85c-0.3-0.22-0.72-0.35-1.27-0.35c-0.68,0-1.23,0.14-1.64,0.42c-0.41,0.27-0.75,0.61-1.01,1.04
		c-0.27,0.41-0.46,0.83-0.58,1.29c-0.13,0.44-0.22,0.83-0.28,1.16l-6.71,31.5c-0.06,0.35-0.13,0.74-0.19,1.18
		c-0.06,0.44-0.05,0.88,0.02,1.29c0.08,0.41,0.27,0.75,0.58,1.04C399.59,48.98,400.08,49.12,400.76,49.12L400.76,49.12z
		 M442.71,38.52h-9.02l-1.43,6.68c-0.06,0.35-0.16,0.74-0.3,1.18c-0.13,0.44-0.33,0.88-0.57,1.29c-0.25,0.41-0.58,0.75-1.02,1.04
		c-0.42,0.27-0.97,0.41-1.65,0.41c-0.64,0-1.13-0.14-1.43-0.41c-0.31-0.28-0.5-0.61-0.6-1.02c-0.09-0.39-0.11-0.82-0.05-1.29
		c0.06-0.46,0.13-0.85,0.19-1.19l2.34-11.1l15.39-4.15v-0.13h0.05l3.49-16.44c0.28-1.32,0.38-2.7,0.28-4.15
		c-0.09-1.45-0.49-2.77-1.18-3.96c-0.69-1.19-1.73-2.17-3.13-2.94c-1.4-0.77-3.29-1.16-5.64-1.16c-2.36,0-4.35,0.39-5.99,1.18
		c-1.62,0.79-2.97,1.78-4.06,2.97c-1.07,1.19-1.9,2.52-2.48,3.95c-0.58,1.42-1.01,2.78-1.29,4.07l-6.85,32.29
		c-0.28,1.29-0.38,2.64-0.31,4.07c0.08,1.43,0.47,2.74,1.16,3.91c0.69,1.18,1.73,2.17,3.1,2.94c1.38,0.79,3.27,1.18,5.63,1.18
		c2.36,0,4.37-0.39,6.01-1.18c1.65-0.77,3-1.76,4.07-2.97c1.08-1.19,1.92-2.5,2.52-3.93c0.6-1.43,1.04-2.78,1.32-4.07L442.71,38.52
		L442.71,38.52z M437.1,9.79c0.68,0,1.16,0.14,1.48,0.42c0.3,0.27,0.5,0.6,0.6,0.99c0.09,0.38,0.11,0.79,0.05,1.24
		c-0.06,0.44-0.13,0.83-0.19,1.16l-2.26,10.5l-5.8,1.62l2.58-12.12c0.09-0.33,0.2-0.72,0.33-1.16c0.13-0.46,0.31-0.86,0.58-1.24
		c0.25-0.39,0.6-0.72,1.01-0.99C435.87,9.93,436.42,9.79,437.1,9.79L437.1,9.79z M469.86,11.44c-0.09-0.06-0.41-0.2-0.94-0.44
		c-0.53-0.22-1.34-0.35-2.42-0.35h-0.09c-1.19,0-2.34,0.61-3.43,1.82c-1.08,1.21-1.89,3.07-2.42,5.55l-0.09,0.33l-8.24,38.78h-9.02
		l11.74-55.37h9.02l-0.28,1.49l-0.63,2c0.3-0.55,0.68-1.08,1.12-1.57c0.46-0.49,0.94-0.91,1.48-1.29c0.53-0.36,1.12-0.66,1.74-0.88
		c0.63-0.2,1.27-0.31,1.92-0.31c0.16,0,0.35,0,0.6,0.02c0.25,0.02,0.5,0.05,0.79,0.06c0.27,0.03,0.53,0.08,0.79,0.13
		c0.24,0.06,0.42,0.11,0.55,0.17L469.86,11.44z"/>
	<g>
		<polygon class="st1" points="0,55.84 0,0.72 7.12,0.72 7.12,48.68 26.83,48.68 26.83,55.84 		"/>
		<path class="st1" d="M70.08,8.27C64.56,2.75,57.92,0,50.14,0C42.35,0,35.7,2.75,30.18,8.27c-5.5,5.52-8.27,12.16-8.27,19.94
			c0,7.78,2.76,14.44,8.27,19.95c5.52,5.5,12.17,8.27,19.95,8.27c7.78,0,14.43-2.76,19.94-8.27c5.51-5.51,8.27-12.17,8.27-19.95
			C78.34,20.43,75.59,13.78,70.08,8.27L70.08,8.27z M65,43.1L65,43.1c-4.1,4.11-9.05,6.16-14.86,6.16c-5.8,0-10.74-2.05-14.85-6.16
			c-4.12-4.12-6.16-9.07-6.16-14.89c0-5.81,2.05-10.76,6.15-14.86c4.09-4.09,9.05-6.15,14.86-6.15c5.81,0,10.76,2.06,14.86,6.15
			c4.09,4.1,6.15,9.05,6.15,14.86C71.15,34.03,69.09,38.98,65,43.1z"/>
		<polygon class="st1" points="81.29,0.72 87.8,0.72 110.54,40.06 110.54,0.72 117.7,0.72 117.7,55.84 111.46,55.84 88.42,16.02 
			88.42,55.84 81.29,55.84 		"/>
		<path class="st1" d="M147.28,8.36c-5.01-5.03-11.98-7.57-20.94-7.62h-5.23v55.13h5.23c8.96-0.05,15.93-2.59,20.94-7.61
			c5.49-5.51,8.23-12.17,8.23-19.95C155.51,20.54,152.77,13.9,147.28,8.36L147.28,8.36z M142.55,43.13L142.55,43.13
			c-3.62,3.65-8.28,5.48-13.95,5.48V8c5.67,0,10.32,1.81,13.95,5.44c4.09,4.1,6.14,9.05,6.14,14.84
			C148.69,34.09,146.64,39.04,142.55,43.13z"/>
		<path class="st1" d="M205.26,8.27C199.75,2.75,193.11,0,185.32,0c-7.79,0-14.44,2.75-19.96,8.27c-5.5,5.52-8.27,12.16-8.27,19.94
			c0,7.78,2.76,14.44,8.27,19.95c5.51,5.5,12.17,8.27,19.96,8.27c7.78,0,14.43-2.76,19.94-8.27c5.51-5.51,8.27-12.17,8.27-19.95
			C213.53,20.43,210.78,13.78,205.26,8.27L205.26,8.27z M200.19,43.1L200.19,43.1c-4.1,4.11-9.05,6.16-14.86,6.16
			c-5.8,0-10.74-2.05-14.85-6.16c-4.12-4.12-6.16-9.07-6.16-14.89c0-5.81,2.05-10.76,6.15-14.86c4.09-4.09,9.05-6.15,14.86-6.15
			c5.81,0,10.76,2.06,14.86,6.15c4.09,4.1,6.15,9.05,6.15,14.86C206.34,34.03,204.28,38.98,200.19,43.1z"/>
		<polygon class="st1" points="252.88,0.72 246.38,0.72 223.64,40.06 223.64,0.72 216.48,0.72 216.48,55.84 222.71,55.84 
			245.76,16.02 245.76,55.84 252.88,55.84 		"/>
	</g>
</g>
</svg>
